<?xml version="1.0" encoding="utf-8" standalone="no"?>
<!DOCTYPE svg PUBLIC "-//W3C//DTD SVG 1.1//EN"
  "http://www.w3.org/Graphics/SVG/1.1/DTD/svg11.dtd">
<svg xmlns:xlink="http://www.w3.org/1999/xlink" width="601.665625pt" height="334.594063pt" viewBox="0 0 601.665625 334.594063" xmlns="http://www.w3.org/2000/svg" version="1.1">
 <metadata>
  <rdf:RDF xmlns:dc="http://purl.org/dc/elements/1.1/" xmlns:cc="http://creativecommons.org/ns#" xmlns:rdf="http://www.w3.org/1999/02/22-rdf-syntax-ns#">
   <cc:Work>
    <dc:type rdf:resource="http://purl.org/dc/dcmitype/StillImage"/>
    <dc:date>2024-06-13T21:34:53.360632</dc:date>
    <dc:format>image/svg+xml</dc:format>
    <dc:creator>
     <cc:Agent>
      <dc:title>Matplotlib v3.8.4, https://matplotlib.org/</dc:title>
     </cc:Agent>
    </dc:creator>
   </cc:Work>
  </rdf:RDF>
 </metadata>
 <defs>
  <style type="text/css">*{stroke-linejoin: round; stroke-linecap: butt}</style>
 </defs>
 <g id="figure_1">
  <g id="patch_1">
   <path d="M 0 334.594063 
L 601.665625 334.594063 
L 601.665625 0 
L 0 0 
z
" style="fill: #ffffff"/>
  </g>
  <g id="axes_1">
   <g id="patch_2">
    <path d="M 36.465625 299.518125 
L 594.465625 299.518125 
L 594.465625 22.318125 
L 36.465625 22.318125 
z
" style="fill: #ffffff"/>
   </g>
   <g id="matplotlib.axis_1">
    <g id="xtick_1">
     <g id="line2d_1">
      <path d="M 69.945625 299.518125 
L 69.945625 22.318125 
" clip-path="url(#p0a90ae6504)" style="fill: none; stroke: #b0b0b0; stroke-opacity: 0.9; stroke-width: 0.8; stroke-linecap: square"/>
     </g>
     <g id="line2d_2">
      <defs>
       <path id="m7da5a06ac6" d="M 0 0 
L 0 3.5 
" style="stroke: #000000; stroke-width: 0.8"/>
      </defs>
      <g>
       <use xlink:href="#m7da5a06ac6" x="69.945625" y="299.518125" style="stroke: #000000; stroke-width: 0.8"/>
      </g>
     </g>
     <g id="text_1">
      <!-- 12/06/2024 -->
      <g transform="translate(41.126875 314.116563) scale(0.1 -0.1)">
       <defs>
        <path id="DejaVuSans-31" d="M 794 531 
L 1825 531 
L 1825 4091 
L 703 3866 
L 703 4441 
L 1819 4666 
L 2450 4666 
L 2450 531 
L 3481 531 
L 3481 0 
L 794 0 
L 794 531 
z
" transform="scale(0.015625)"/>
        <path id="DejaVuSans-32" d="M 1228 531 
L 3431 531 
L 3431 0 
L 469 0 
L 469 531 
Q 828 903 1448 1529 
Q 2069 2156 2228 2338 
Q 2531 2678 2651 2914 
Q 2772 3150 2772 3378 
Q 2772 3750 2511 3984 
Q 2250 4219 1831 4219 
Q 1534 4219 1204 4116 
Q 875 4013 500 3803 
L 500 4441 
Q 881 4594 1212 4672 
Q 1544 4750 1819 4750 
Q 2544 4750 2975 4387 
Q 3406 4025 3406 3419 
Q 3406 3131 3298 2873 
Q 3191 2616 2906 2266 
Q 2828 2175 2409 1742 
Q 1991 1309 1228 531 
z
" transform="scale(0.015625)"/>
        <path id="DejaVuSans-2f" d="M 1625 4666 
L 2156 4666 
L 531 -594 
L 0 -594 
L 1625 4666 
z
" transform="scale(0.015625)"/>
        <path id="DejaVuSans-30" d="M 2034 4250 
Q 1547 4250 1301 3770 
Q 1056 3291 1056 2328 
Q 1056 1369 1301 889 
Q 1547 409 2034 409 
Q 2525 409 2770 889 
Q 3016 1369 3016 2328 
Q 3016 3291 2770 3770 
Q 2525 4250 2034 4250 
z
M 2034 4750 
Q 2819 4750 3233 4129 
Q 3647 3509 3647 2328 
Q 3647 1150 3233 529 
Q 2819 -91 2034 -91 
Q 1250 -91 836 529 
Q 422 1150 422 2328 
Q 422 3509 836 4129 
Q 1250 4750 2034 4750 
z
" transform="scale(0.015625)"/>
        <path id="DejaVuSans-36" d="M 2113 2584 
Q 1688 2584 1439 2293 
Q 1191 2003 1191 1497 
Q 1191 994 1439 701 
Q 1688 409 2113 409 
Q 2538 409 2786 701 
Q 3034 994 3034 1497 
Q 3034 2003 2786 2293 
Q 2538 2584 2113 2584 
z
M 3366 4563 
L 3366 3988 
Q 3128 4100 2886 4159 
Q 2644 4219 2406 4219 
Q 1781 4219 1451 3797 
Q 1122 3375 1075 2522 
Q 1259 2794 1537 2939 
Q 1816 3084 2150 3084 
Q 2853 3084 3261 2657 
Q 3669 2231 3669 1497 
Q 3669 778 3244 343 
Q 2819 -91 2113 -91 
Q 1303 -91 875 529 
Q 447 1150 447 2328 
Q 447 3434 972 4092 
Q 1497 4750 2381 4750 
Q 2619 4750 2861 4703 
Q 3103 4656 3366 4563 
z
" transform="scale(0.015625)"/>
        <path id="DejaVuSans-34" d="M 2419 4116 
L 825 1625 
L 2419 1625 
L 2419 4116 
z
M 2253 4666 
L 3047 4666 
L 3047 1625 
L 3713 1625 
L 3713 1100 
L 3047 1100 
L 3047 0 
L 2419 0 
L 2419 1100 
L 313 1100 
L 313 1709 
L 2253 4666 
z
" transform="scale(0.015625)"/>
       </defs>
       <use xlink:href="#DejaVuSans-31"/>
       <use xlink:href="#DejaVuSans-32" x="63.623047"/>
       <use xlink:href="#DejaVuSans-2f" x="127.246094"/>
       <use xlink:href="#DejaVuSans-30" x="160.9375"/>
       <use xlink:href="#DejaVuSans-36" x="224.560547"/>
       <use xlink:href="#DejaVuSans-2f" x="288.183594"/>
       <use xlink:href="#DejaVuSans-32" x="321.875"/>
       <use xlink:href="#DejaVuSans-30" x="385.498047"/>
       <use xlink:href="#DejaVuSans-32" x="449.121094"/>
       <use xlink:href="#DejaVuSans-34" x="512.744141"/>
      </g>
      <!--  00:00 -->
      <g transform="translate(53.947188 325.314375) scale(0.1 -0.1)">
       <defs>
        <path id="DejaVuSans-20" transform="scale(0.015625)"/>
        <path id="DejaVuSans-3a" d="M 750 794 
L 1409 794 
L 1409 0 
L 750 0 
L 750 794 
z
M 750 3309 
L 1409 3309 
L 1409 2516 
L 750 2516 
L 750 3309 
z
" transform="scale(0.015625)"/>
       </defs>
       <use xlink:href="#DejaVuSans-20"/>
       <use xlink:href="#DejaVuSans-30" x="31.787109"/>
       <use xlink:href="#DejaVuSans-30" x="95.410156"/>
       <use xlink:href="#DejaVuSans-3a" x="159.033203"/>
       <use xlink:href="#DejaVuSans-30" x="192.724609"/>
       <use xlink:href="#DejaVuSans-30" x="256.347656"/>
      </g>
     </g>
    </g>
    <g id="xtick_2">
     <g id="line2d_3">
      <path d="M 136.905625 299.518125 
L 136.905625 22.318125 
" clip-path="url(#p0a90ae6504)" style="fill: none; stroke: #b0b0b0; stroke-opacity: 0.9; stroke-width: 0.8; stroke-linecap: square"/>
     </g>
     <g id="line2d_4">
      <g>
       <use xlink:href="#m7da5a06ac6" x="136.905625" y="299.518125" style="stroke: #000000; stroke-width: 0.8"/>
      </g>
     </g>
     <g id="text_2">
      <!-- 12/06/2024 -->
      <g transform="translate(108.086875 314.116563) scale(0.1 -0.1)">
       <use xlink:href="#DejaVuSans-31"/>
       <use xlink:href="#DejaVuSans-32" x="63.623047"/>
       <use xlink:href="#DejaVuSans-2f" x="127.246094"/>
       <use xlink:href="#DejaVuSans-30" x="160.9375"/>
       <use xlink:href="#DejaVuSans-36" x="224.560547"/>
       <use xlink:href="#DejaVuSans-2f" x="288.183594"/>
       <use xlink:href="#DejaVuSans-32" x="321.875"/>
       <use xlink:href="#DejaVuSans-30" x="385.498047"/>
       <use xlink:href="#DejaVuSans-32" x="449.121094"/>
       <use xlink:href="#DejaVuSans-34" x="512.744141"/>
      </g>
      <!--  06:00 -->
      <g transform="translate(120.907188 325.314375) scale(0.1 -0.1)">
       <use xlink:href="#DejaVuSans-20"/>
       <use xlink:href="#DejaVuSans-30" x="31.787109"/>
       <use xlink:href="#DejaVuSans-36" x="95.410156"/>
       <use xlink:href="#DejaVuSans-3a" x="159.033203"/>
       <use xlink:href="#DejaVuSans-30" x="192.724609"/>
       <use xlink:href="#DejaVuSans-30" x="256.347656"/>
      </g>
     </g>
    </g>
    <g id="xtick_3">
     <g id="line2d_5">
      <path d="M 203.865625 299.518125 
L 203.865625 22.318125 
" clip-path="url(#p0a90ae6504)" style="fill: none; stroke: #b0b0b0; stroke-opacity: 0.9; stroke-width: 0.8; stroke-linecap: square"/>
     </g>
     <g id="line2d_6">
      <g>
       <use xlink:href="#m7da5a06ac6" x="203.865625" y="299.518125" style="stroke: #000000; stroke-width: 0.8"/>
      </g>
     </g>
     <g id="text_3">
      <!-- 12/06/2024 -->
      <g transform="translate(175.046875 314.116563) scale(0.1 -0.1)">
       <use xlink:href="#DejaVuSans-31"/>
       <use xlink:href="#DejaVuSans-32" x="63.623047"/>
       <use xlink:href="#DejaVuSans-2f" x="127.246094"/>
       <use xlink:href="#DejaVuSans-30" x="160.9375"/>
       <use xlink:href="#DejaVuSans-36" x="224.560547"/>
       <use xlink:href="#DejaVuSans-2f" x="288.183594"/>
       <use xlink:href="#DejaVuSans-32" x="321.875"/>
       <use xlink:href="#DejaVuSans-30" x="385.498047"/>
       <use xlink:href="#DejaVuSans-32" x="449.121094"/>
       <use xlink:href="#DejaVuSans-34" x="512.744141"/>
      </g>
      <!--  12:00 -->
      <g transform="translate(187.867188 325.314375) scale(0.1 -0.1)">
       <use xlink:href="#DejaVuSans-20"/>
       <use xlink:href="#DejaVuSans-31" x="31.787109"/>
       <use xlink:href="#DejaVuSans-32" x="95.410156"/>
       <use xlink:href="#DejaVuSans-3a" x="159.033203"/>
       <use xlink:href="#DejaVuSans-30" x="192.724609"/>
       <use xlink:href="#DejaVuSans-30" x="256.347656"/>
      </g>
     </g>
    </g>
    <g id="xtick_4">
     <g id="line2d_7">
      <path d="M 270.825625 299.518125 
L 270.825625 22.318125 
" clip-path="url(#p0a90ae6504)" style="fill: none; stroke: #b0b0b0; stroke-opacity: 0.9; stroke-width: 0.8; stroke-linecap: square"/>
     </g>
     <g id="line2d_8">
      <g>
       <use xlink:href="#m7da5a06ac6" x="270.825625" y="299.518125" style="stroke: #000000; stroke-width: 0.8"/>
      </g>
     </g>
     <g id="text_4">
      <!-- 12/06/2024 -->
      <g transform="translate(242.006875 314.116563) scale(0.1 -0.1)">
       <use xlink:href="#DejaVuSans-31"/>
       <use xlink:href="#DejaVuSans-32" x="63.623047"/>
       <use xlink:href="#DejaVuSans-2f" x="127.246094"/>
       <use xlink:href="#DejaVuSans-30" x="160.9375"/>
       <use xlink:href="#DejaVuSans-36" x="224.560547"/>
       <use xlink:href="#DejaVuSans-2f" x="288.183594"/>
       <use xlink:href="#DejaVuSans-32" x="321.875"/>
       <use xlink:href="#DejaVuSans-30" x="385.498047"/>
       <use xlink:href="#DejaVuSans-32" x="449.121094"/>
       <use xlink:href="#DejaVuSans-34" x="512.744141"/>
      </g>
      <!--  18:00 -->
      <g transform="translate(254.827188 325.314375) scale(0.1 -0.1)">
       <defs>
        <path id="DejaVuSans-38" d="M 2034 2216 
Q 1584 2216 1326 1975 
Q 1069 1734 1069 1313 
Q 1069 891 1326 650 
Q 1584 409 2034 409 
Q 2484 409 2743 651 
Q 3003 894 3003 1313 
Q 3003 1734 2745 1975 
Q 2488 2216 2034 2216 
z
M 1403 2484 
Q 997 2584 770 2862 
Q 544 3141 544 3541 
Q 544 4100 942 4425 
Q 1341 4750 2034 4750 
Q 2731 4750 3128 4425 
Q 3525 4100 3525 3541 
Q 3525 3141 3298 2862 
Q 3072 2584 2669 2484 
Q 3125 2378 3379 2068 
Q 3634 1759 3634 1313 
Q 3634 634 3220 271 
Q 2806 -91 2034 -91 
Q 1263 -91 848 271 
Q 434 634 434 1313 
Q 434 1759 690 2068 
Q 947 2378 1403 2484 
z
M 1172 3481 
Q 1172 3119 1398 2916 
Q 1625 2713 2034 2713 
Q 2441 2713 2670 2916 
Q 2900 3119 2900 3481 
Q 2900 3844 2670 4047 
Q 2441 4250 2034 4250 
Q 1625 4250 1398 4047 
Q 1172 3844 1172 3481 
z
" transform="scale(0.015625)"/>
       </defs>
       <use xlink:href="#DejaVuSans-20"/>
       <use xlink:href="#DejaVuSans-31" x="31.787109"/>
       <use xlink:href="#DejaVuSans-38" x="95.410156"/>
       <use xlink:href="#DejaVuSans-3a" x="159.033203"/>
       <use xlink:href="#DejaVuSans-30" x="192.724609"/>
       <use xlink:href="#DejaVuSans-30" x="256.347656"/>
      </g>
     </g>
    </g>
    <g id="xtick_5">
     <g id="line2d_9">
      <path d="M 337.785625 299.518125 
L 337.785625 22.318125 
" clip-path="url(#p0a90ae6504)" style="fill: none; stroke: #b0b0b0; stroke-opacity: 0.9; stroke-width: 0.8; stroke-linecap: square"/>
     </g>
     <g id="line2d_10">
      <g>
       <use xlink:href="#m7da5a06ac6" x="337.785625" y="299.518125" style="stroke: #000000; stroke-width: 0.8"/>
      </g>
     </g>
     <g id="text_5">
      <!-- 13/06/2024 -->
      <g transform="translate(308.966875 314.116563) scale(0.1 -0.1)">
       <defs>
        <path id="DejaVuSans-33" d="M 2597 2516 
Q 3050 2419 3304 2112 
Q 3559 1806 3559 1356 
Q 3559 666 3084 287 
Q 2609 -91 1734 -91 
Q 1441 -91 1130 -33 
Q 819 25 488 141 
L 488 750 
Q 750 597 1062 519 
Q 1375 441 1716 441 
Q 2309 441 2620 675 
Q 2931 909 2931 1356 
Q 2931 1769 2642 2001 
Q 2353 2234 1838 2234 
L 1294 2234 
L 1294 2753 
L 1863 2753 
Q 2328 2753 2575 2939 
Q 2822 3125 2822 3475 
Q 2822 3834 2567 4026 
Q 2313 4219 1838 4219 
Q 1578 4219 1281 4162 
Q 984 4106 628 3988 
L 628 4550 
Q 988 4650 1302 4700 
Q 1616 4750 1894 4750 
Q 2613 4750 3031 4423 
Q 3450 4097 3450 3541 
Q 3450 3153 3228 2886 
Q 3006 2619 2597 2516 
z
" transform="scale(0.015625)"/>
       </defs>
       <use xlink:href="#DejaVuSans-31"/>
       <use xlink:href="#DejaVuSans-33" x="63.623047"/>
       <use xlink:href="#DejaVuSans-2f" x="127.246094"/>
       <use xlink:href="#DejaVuSans-30" x="160.9375"/>
       <use xlink:href="#DejaVuSans-36" x="224.560547"/>
       <use xlink:href="#DejaVuSans-2f" x="288.183594"/>
       <use xlink:href="#DejaVuSans-32" x="321.875"/>
       <use xlink:href="#DejaVuSans-30" x="385.498047"/>
       <use xlink:href="#DejaVuSans-32" x="449.121094"/>
       <use xlink:href="#DejaVuSans-34" x="512.744141"/>
      </g>
      <!--  00:00 -->
      <g transform="translate(321.787188 325.314375) scale(0.1 -0.1)">
       <use xlink:href="#DejaVuSans-20"/>
       <use xlink:href="#DejaVuSans-30" x="31.787109"/>
       <use xlink:href="#DejaVuSans-30" x="95.410156"/>
       <use xlink:href="#DejaVuSans-3a" x="159.033203"/>
       <use xlink:href="#DejaVuSans-30" x="192.724609"/>
       <use xlink:href="#DejaVuSans-30" x="256.347656"/>
      </g>
     </g>
    </g>
    <g id="xtick_6">
     <g id="line2d_11">
      <path d="M 404.745625 299.518125 
L 404.745625 22.318125 
" clip-path="url(#p0a90ae6504)" style="fill: none; stroke: #b0b0b0; stroke-opacity: 0.9; stroke-width: 0.8; stroke-linecap: square"/>
     </g>
     <g id="line2d_12">
      <g>
       <use xlink:href="#m7da5a06ac6" x="404.745625" y="299.518125" style="stroke: #000000; stroke-width: 0.8"/>
      </g>
     </g>
     <g id="text_6">
      <!-- 13/06/2024 -->
      <g transform="translate(375.926875 314.116563) scale(0.1 -0.1)">
       <use xlink:href="#DejaVuSans-31"/>
       <use xlink:href="#DejaVuSans-33" x="63.623047"/>
       <use xlink:href="#DejaVuSans-2f" x="127.246094"/>
       <use xlink:href="#DejaVuSans-30" x="160.9375"/>
       <use xlink:href="#DejaVuSans-36" x="224.560547"/>
       <use xlink:href="#DejaVuSans-2f" x="288.183594"/>
       <use xlink:href="#DejaVuSans-32" x="321.875"/>
       <use xlink:href="#DejaVuSans-30" x="385.498047"/>
       <use xlink:href="#DejaVuSans-32" x="449.121094"/>
       <use xlink:href="#DejaVuSans-34" x="512.744141"/>
      </g>
      <!--  06:00 -->
      <g transform="translate(388.747188 325.314375) scale(0.1 -0.1)">
       <use xlink:href="#DejaVuSans-20"/>
       <use xlink:href="#DejaVuSans-30" x="31.787109"/>
       <use xlink:href="#DejaVuSans-36" x="95.410156"/>
       <use xlink:href="#DejaVuSans-3a" x="159.033203"/>
       <use xlink:href="#DejaVuSans-30" x="192.724609"/>
       <use xlink:href="#DejaVuSans-30" x="256.347656"/>
      </g>
     </g>
    </g>
    <g id="xtick_7">
     <g id="line2d_13">
      <path d="M 471.705625 299.518125 
L 471.705625 22.318125 
" clip-path="url(#p0a90ae6504)" style="fill: none; stroke: #b0b0b0; stroke-opacity: 0.9; stroke-width: 0.8; stroke-linecap: square"/>
     </g>
     <g id="line2d_14">
      <g>
       <use xlink:href="#m7da5a06ac6" x="471.705625" y="299.518125" style="stroke: #000000; stroke-width: 0.8"/>
      </g>
     </g>
     <g id="text_7">
      <!-- 13/06/2024 -->
      <g transform="translate(442.886875 314.116563) scale(0.1 -0.1)">
       <use xlink:href="#DejaVuSans-31"/>
       <use xlink:href="#DejaVuSans-33" x="63.623047"/>
       <use xlink:href="#DejaVuSans-2f" x="127.246094"/>
       <use xlink:href="#DejaVuSans-30" x="160.9375"/>
       <use xlink:href="#DejaVuSans-36" x="224.560547"/>
       <use xlink:href="#DejaVuSans-2f" x="288.183594"/>
       <use xlink:href="#DejaVuSans-32" x="321.875"/>
       <use xlink:href="#DejaVuSans-30" x="385.498047"/>
       <use xlink:href="#DejaVuSans-32" x="449.121094"/>
       <use xlink:href="#DejaVuSans-34" x="512.744141"/>
      </g>
      <!--  12:00 -->
      <g transform="translate(455.707188 325.314375) scale(0.1 -0.1)">
       <use xlink:href="#DejaVuSans-20"/>
       <use xlink:href="#DejaVuSans-31" x="31.787109"/>
       <use xlink:href="#DejaVuSans-32" x="95.410156"/>
       <use xlink:href="#DejaVuSans-3a" x="159.033203"/>
       <use xlink:href="#DejaVuSans-30" x="192.724609"/>
       <use xlink:href="#DejaVuSans-30" x="256.347656"/>
      </g>
     </g>
    </g>
    <g id="xtick_8">
     <g id="line2d_15">
      <path d="M 538.665625 299.518125 
L 538.665625 22.318125 
" clip-path="url(#p0a90ae6504)" style="fill: none; stroke: #b0b0b0; stroke-opacity: 0.9; stroke-width: 0.8; stroke-linecap: square"/>
     </g>
     <g id="line2d_16">
      <g>
       <use xlink:href="#m7da5a06ac6" x="538.665625" y="299.518125" style="stroke: #000000; stroke-width: 0.8"/>
      </g>
     </g>
     <g id="text_8">
      <!-- 13/06/2024 -->
      <g transform="translate(509.846875 314.116563) scale(0.1 -0.1)">
       <use xlink:href="#DejaVuSans-31"/>
       <use xlink:href="#DejaVuSans-33" x="63.623047"/>
       <use xlink:href="#DejaVuSans-2f" x="127.246094"/>
       <use xlink:href="#DejaVuSans-30" x="160.9375"/>
       <use xlink:href="#DejaVuSans-36" x="224.560547"/>
       <use xlink:href="#DejaVuSans-2f" x="288.183594"/>
       <use xlink:href="#DejaVuSans-32" x="321.875"/>
       <use xlink:href="#DejaVuSans-30" x="385.498047"/>
       <use xlink:href="#DejaVuSans-32" x="449.121094"/>
       <use xlink:href="#DejaVuSans-34" x="512.744141"/>
      </g>
      <!--  18:00 -->
      <g transform="translate(522.667188 325.314375) scale(0.1 -0.1)">
       <use xlink:href="#DejaVuSans-20"/>
       <use xlink:href="#DejaVuSans-31" x="31.787109"/>
       <use xlink:href="#DejaVuSans-38" x="95.410156"/>
       <use xlink:href="#DejaVuSans-3a" x="159.033203"/>
       <use xlink:href="#DejaVuSans-30" x="192.724609"/>
       <use xlink:href="#DejaVuSans-30" x="256.347656"/>
      </g>
     </g>
    </g>
    <g id="xtick_9">
     <g id="line2d_17">
      <path d="M 47.625625 299.518125 
L 47.625625 22.318125 
" clip-path="url(#p0a90ae6504)" style="fill: none; stroke-dasharray: 2.96,1.28; stroke-dashoffset: 0; stroke: #b0b0b0; stroke-opacity: 0.5; stroke-width: 0.8"/>
     </g>
     <g id="line2d_18">
      <defs>
       <path id="m9942e74e94" d="M 0 0 
L 0 2 
" style="stroke: #000000; stroke-width: 0.6"/>
      </defs>
      <g>
       <use xlink:href="#m9942e74e94" x="47.625625" y="299.518125" style="stroke: #000000; stroke-width: 0.6"/>
      </g>
     </g>
    </g>
    <g id="xtick_10">
     <g id="line2d_19">
      <path d="M 92.265625 299.518125 
L 92.265625 22.318125 
" clip-path="url(#p0a90ae6504)" style="fill: none; stroke-dasharray: 2.96,1.28; stroke-dashoffset: 0; stroke: #b0b0b0; stroke-opacity: 0.5; stroke-width: 0.8"/>
     </g>
     <g id="line2d_20">
      <g>
       <use xlink:href="#m9942e74e94" x="92.265625" y="299.518125" style="stroke: #000000; stroke-width: 0.6"/>
      </g>
     </g>
    </g>
    <g id="xtick_11">
     <g id="line2d_21">
      <path d="M 114.585625 299.518125 
L 114.585625 22.318125 
" clip-path="url(#p0a90ae6504)" style="fill: none; stroke-dasharray: 2.96,1.28; stroke-dashoffset: 0; stroke: #b0b0b0; stroke-opacity: 0.5; stroke-width: 0.8"/>
     </g>
     <g id="line2d_22">
      <g>
       <use xlink:href="#m9942e74e94" x="114.585625" y="299.518125" style="stroke: #000000; stroke-width: 0.6"/>
      </g>
     </g>
    </g>
    <g id="xtick_12">
     <g id="line2d_23">
      <path d="M 159.225625 299.518125 
L 159.225625 22.318125 
" clip-path="url(#p0a90ae6504)" style="fill: none; stroke-dasharray: 2.96,1.28; stroke-dashoffset: 0; stroke: #b0b0b0; stroke-opacity: 0.5; stroke-width: 0.8"/>
     </g>
     <g id="line2d_24">
      <g>
       <use xlink:href="#m9942e74e94" x="159.225625" y="299.518125" style="stroke: #000000; stroke-width: 0.6"/>
      </g>
     </g>
    </g>
    <g id="xtick_13">
     <g id="line2d_25">
      <path d="M 181.545625 299.518125 
L 181.545625 22.318125 
" clip-path="url(#p0a90ae6504)" style="fill: none; stroke-dasharray: 2.96,1.28; stroke-dashoffset: 0; stroke: #b0b0b0; stroke-opacity: 0.5; stroke-width: 0.8"/>
     </g>
     <g id="line2d_26">
      <g>
       <use xlink:href="#m9942e74e94" x="181.545625" y="299.518125" style="stroke: #000000; stroke-width: 0.6"/>
      </g>
     </g>
    </g>
    <g id="xtick_14">
     <g id="line2d_27">
      <path d="M 226.185625 299.518125 
L 226.185625 22.318125 
" clip-path="url(#p0a90ae6504)" style="fill: none; stroke-dasharray: 2.96,1.28; stroke-dashoffset: 0; stroke: #b0b0b0; stroke-opacity: 0.5; stroke-width: 0.8"/>
     </g>
     <g id="line2d_28">
      <g>
       <use xlink:href="#m9942e74e94" x="226.185625" y="299.518125" style="stroke: #000000; stroke-width: 0.6"/>
      </g>
     </g>
    </g>
    <g id="xtick_15">
     <g id="line2d_29">
      <path d="M 248.505625 299.518125 
L 248.505625 22.318125 
" clip-path="url(#p0a90ae6504)" style="fill: none; stroke-dasharray: 2.96,1.28; stroke-dashoffset: 0; stroke: #b0b0b0; stroke-opacity: 0.5; stroke-width: 0.8"/>
     </g>
     <g id="line2d_30">
      <g>
       <use xlink:href="#m9942e74e94" x="248.505625" y="299.518125" style="stroke: #000000; stroke-width: 0.6"/>
      </g>
     </g>
    </g>
    <g id="xtick_16">
     <g id="line2d_31">
      <path d="M 293.145625 299.518125 
L 293.145625 22.318125 
" clip-path="url(#p0a90ae6504)" style="fill: none; stroke-dasharray: 2.96,1.28; stroke-dashoffset: 0; stroke: #b0b0b0; stroke-opacity: 0.5; stroke-width: 0.8"/>
     </g>
     <g id="line2d_32">
      <g>
       <use xlink:href="#m9942e74e94" x="293.145625" y="299.518125" style="stroke: #000000; stroke-width: 0.6"/>
      </g>
     </g>
    </g>
    <g id="xtick_17">
     <g id="line2d_33">
      <path d="M 315.465625 299.518125 
L 315.465625 22.318125 
" clip-path="url(#p0a90ae6504)" style="fill: none; stroke-dasharray: 2.96,1.28; stroke-dashoffset: 0; stroke: #b0b0b0; stroke-opacity: 0.5; stroke-width: 0.8"/>
     </g>
     <g id="line2d_34">
      <g>
       <use xlink:href="#m9942e74e94" x="315.465625" y="299.518125" style="stroke: #000000; stroke-width: 0.6"/>
      </g>
     </g>
    </g>
    <g id="xtick_18">
     <g id="line2d_35">
      <path d="M 360.105625 299.518125 
L 360.105625 22.318125 
" clip-path="url(#p0a90ae6504)" style="fill: none; stroke-dasharray: 2.96,1.28; stroke-dashoffset: 0; stroke: #b0b0b0; stroke-opacity: 0.5; stroke-width: 0.8"/>
     </g>
     <g id="line2d_36">
      <g>
       <use xlink:href="#m9942e74e94" x="360.105625" y="299.518125" style="stroke: #000000; stroke-width: 0.6"/>
      </g>
     </g>
    </g>
    <g id="xtick_19">
     <g id="line2d_37">
      <path d="M 382.425625 299.518125 
L 382.425625 22.318125 
" clip-path="url(#p0a90ae6504)" style="fill: none; stroke-dasharray: 2.96,1.28; stroke-dashoffset: 0; stroke: #b0b0b0; stroke-opacity: 0.5; stroke-width: 0.8"/>
     </g>
     <g id="line2d_38">
      <g>
       <use xlink:href="#m9942e74e94" x="382.425625" y="299.518125" style="stroke: #000000; stroke-width: 0.6"/>
      </g>
     </g>
    </g>
    <g id="xtick_20">
     <g id="line2d_39">
      <path d="M 427.065625 299.518125 
L 427.065625 22.318125 
" clip-path="url(#p0a90ae6504)" style="fill: none; stroke-dasharray: 2.96,1.28; stroke-dashoffset: 0; stroke: #b0b0b0; stroke-opacity: 0.5; stroke-width: 0.8"/>
     </g>
     <g id="line2d_40">
      <g>
       <use xlink:href="#m9942e74e94" x="427.065625" y="299.518125" style="stroke: #000000; stroke-width: 0.6"/>
      </g>
     </g>
    </g>
    <g id="xtick_21">
     <g id="line2d_41">
      <path d="M 449.385625 299.518125 
L 449.385625 22.318125 
" clip-path="url(#p0a90ae6504)" style="fill: none; stroke-dasharray: 2.96,1.28; stroke-dashoffset: 0; stroke: #b0b0b0; stroke-opacity: 0.5; stroke-width: 0.8"/>
     </g>
     <g id="line2d_42">
      <g>
       <use xlink:href="#m9942e74e94" x="449.385625" y="299.518125" style="stroke: #000000; stroke-width: 0.6"/>
      </g>
     </g>
    </g>
    <g id="xtick_22">
     <g id="line2d_43">
      <path d="M 494.025625 299.518125 
L 494.025625 22.318125 
" clip-path="url(#p0a90ae6504)" style="fill: none; stroke-dasharray: 2.96,1.28; stroke-dashoffset: 0; stroke: #b0b0b0; stroke-opacity: 0.5; stroke-width: 0.8"/>
     </g>
     <g id="line2d_44">
      <g>
       <use xlink:href="#m9942e74e94" x="494.025625" y="299.518125" style="stroke: #000000; stroke-width: 0.6"/>
      </g>
     </g>
    </g>
    <g id="xtick_23">
     <g id="line2d_45">
      <path d="M 516.345625 299.518125 
L 516.345625 22.318125 
" clip-path="url(#p0a90ae6504)" style="fill: none; stroke-dasharray: 2.96,1.28; stroke-dashoffset: 0; stroke: #b0b0b0; stroke-opacity: 0.5; stroke-width: 0.8"/>
     </g>
     <g id="line2d_46">
      <g>
       <use xlink:href="#m9942e74e94" x="516.345625" y="299.518125" style="stroke: #000000; stroke-width: 0.6"/>
      </g>
     </g>
    </g>
    <g id="xtick_24">
     <g id="line2d_47">
      <path d="M 560.985625 299.518125 
L 560.985625 22.318125 
" clip-path="url(#p0a90ae6504)" style="fill: none; stroke-dasharray: 2.96,1.28; stroke-dashoffset: 0; stroke: #b0b0b0; stroke-opacity: 0.5; stroke-width: 0.8"/>
     </g>
     <g id="line2d_48">
      <g>
       <use xlink:href="#m9942e74e94" x="560.985625" y="299.518125" style="stroke: #000000; stroke-width: 0.6"/>
      </g>
     </g>
    </g>
    <g id="xtick_25">
     <g id="line2d_49">
      <path d="M 583.305625 299.518125 
L 583.305625 22.318125 
" clip-path="url(#p0a90ae6504)" style="fill: none; stroke-dasharray: 2.96,1.28; stroke-dashoffset: 0; stroke: #b0b0b0; stroke-opacity: 0.5; stroke-width: 0.8"/>
     </g>
     <g id="line2d_50">
      <g>
       <use xlink:href="#m9942e74e94" x="583.305625" y="299.518125" style="stroke: #000000; stroke-width: 0.6"/>
      </g>
     </g>
    </g>
   </g>
   <g id="matplotlib.axis_2">
    <g id="ytick_1">
     <g id="line2d_51">
      <path d="M 36.465625 299.518125 
L 594.465625 299.518125 
" clip-path="url(#p0a90ae6504)" style="fill: none; stroke: #b0b0b0; stroke-opacity: 0.9; stroke-width: 0.8; stroke-linecap: square"/>
     </g>
     <g id="line2d_52">
      <defs>
       <path id="me263ab4a61" d="M 0 0 
L -3.5 0 
" style="stroke: #000000; stroke-width: 0.8"/>
      </defs>
      <g>
       <use xlink:href="#me263ab4a61" x="36.465625" y="299.518125" style="stroke: #000000; stroke-width: 0.8"/>
      </g>
     </g>
     <g id="text_9">
      <!-- 0.00 -->
      <g transform="translate(7.2 303.317344) scale(0.1 -0.1)">
       <defs>
        <path id="DejaVuSans-2e" d="M 684 794 
L 1344 794 
L 1344 0 
L 684 0 
L 684 794 
z
" transform="scale(0.015625)"/>
       </defs>
       <use xlink:href="#DejaVuSans-30"/>
       <use xlink:href="#DejaVuSans-2e" x="63.623047"/>
       <use xlink:href="#DejaVuSans-30" x="95.410156"/>
       <use xlink:href="#DejaVuSans-30" x="159.033203"/>
      </g>
     </g>
    </g>
    <g id="ytick_2">
     <g id="line2d_53">
      <path d="M 36.465625 266.080248 
L 594.465625 266.080248 
" clip-path="url(#p0a90ae6504)" style="fill: none; stroke: #b0b0b0; stroke-opacity: 0.9; stroke-width: 0.8; stroke-linecap: square"/>
     </g>
     <g id="line2d_54">
      <g>
       <use xlink:href="#me263ab4a61" x="36.465625" y="266.080248" style="stroke: #000000; stroke-width: 0.8"/>
      </g>
     </g>
     <g id="text_10">
      <!-- 0.01 -->
      <g transform="translate(7.2 269.879467) scale(0.1 -0.1)">
       <use xlink:href="#DejaVuSans-30"/>
       <use xlink:href="#DejaVuSans-2e" x="63.623047"/>
       <use xlink:href="#DejaVuSans-30" x="95.410156"/>
       <use xlink:href="#DejaVuSans-31" x="159.033203"/>
      </g>
     </g>
    </g>
    <g id="ytick_3">
     <g id="line2d_55">
      <path d="M 36.465625 232.642371 
L 594.465625 232.642371 
" clip-path="url(#p0a90ae6504)" style="fill: none; stroke: #b0b0b0; stroke-opacity: 0.9; stroke-width: 0.8; stroke-linecap: square"/>
     </g>
     <g id="line2d_56">
      <g>
       <use xlink:href="#me263ab4a61" x="36.465625" y="232.642371" style="stroke: #000000; stroke-width: 0.8"/>
      </g>
     </g>
     <g id="text_11">
      <!-- 0.02 -->
      <g transform="translate(7.2 236.44159) scale(0.1 -0.1)">
       <use xlink:href="#DejaVuSans-30"/>
       <use xlink:href="#DejaVuSans-2e" x="63.623047"/>
       <use xlink:href="#DejaVuSans-30" x="95.410156"/>
       <use xlink:href="#DejaVuSans-32" x="159.033203"/>
      </g>
     </g>
    </g>
    <g id="ytick_4">
     <g id="line2d_57">
      <path d="M 36.465625 199.204494 
L 594.465625 199.204494 
" clip-path="url(#p0a90ae6504)" style="fill: none; stroke: #b0b0b0; stroke-opacity: 0.9; stroke-width: 0.8; stroke-linecap: square"/>
     </g>
     <g id="line2d_58">
      <g>
       <use xlink:href="#me263ab4a61" x="36.465625" y="199.204494" style="stroke: #000000; stroke-width: 0.8"/>
      </g>
     </g>
     <g id="text_12">
      <!-- 0.03 -->
      <g transform="translate(7.2 203.003713) scale(0.1 -0.1)">
       <use xlink:href="#DejaVuSans-30"/>
       <use xlink:href="#DejaVuSans-2e" x="63.623047"/>
       <use xlink:href="#DejaVuSans-30" x="95.410156"/>
       <use xlink:href="#DejaVuSans-33" x="159.033203"/>
      </g>
     </g>
    </g>
    <g id="ytick_5">
     <g id="line2d_59">
      <path d="M 36.465625 165.766617 
L 594.465625 165.766617 
" clip-path="url(#p0a90ae6504)" style="fill: none; stroke: #b0b0b0; stroke-opacity: 0.9; stroke-width: 0.8; stroke-linecap: square"/>
     </g>
     <g id="line2d_60">
      <g>
       <use xlink:href="#me263ab4a61" x="36.465625" y="165.766617" style="stroke: #000000; stroke-width: 0.8"/>
      </g>
     </g>
     <g id="text_13">
      <!-- 0.04 -->
      <g transform="translate(7.2 169.565836) scale(0.1 -0.1)">
       <use xlink:href="#DejaVuSans-30"/>
       <use xlink:href="#DejaVuSans-2e" x="63.623047"/>
       <use xlink:href="#DejaVuSans-30" x="95.410156"/>
       <use xlink:href="#DejaVuSans-34" x="159.033203"/>
      </g>
     </g>
    </g>
    <g id="ytick_6">
     <g id="line2d_61">
      <path d="M 36.465625 132.32874 
L 594.465625 132.32874 
" clip-path="url(#p0a90ae6504)" style="fill: none; stroke: #b0b0b0; stroke-opacity: 0.9; stroke-width: 0.8; stroke-linecap: square"/>
     </g>
     <g id="line2d_62">
      <g>
       <use xlink:href="#me263ab4a61" x="36.465625" y="132.32874" style="stroke: #000000; stroke-width: 0.8"/>
      </g>
     </g>
     <g id="text_14">
      <!-- 0.05 -->
      <g transform="translate(7.2 136.127959) scale(0.1 -0.1)">
       <defs>
        <path id="DejaVuSans-35" d="M 691 4666 
L 3169 4666 
L 3169 4134 
L 1269 4134 
L 1269 2991 
Q 1406 3038 1543 3061 
Q 1681 3084 1819 3084 
Q 2600 3084 3056 2656 
Q 3513 2228 3513 1497 
Q 3513 744 3044 326 
Q 2575 -91 1722 -91 
Q 1428 -91 1123 -41 
Q 819 9 494 109 
L 494 744 
Q 775 591 1075 516 
Q 1375 441 1709 441 
Q 2250 441 2565 725 
Q 2881 1009 2881 1497 
Q 2881 1984 2565 2268 
Q 2250 2553 1709 2553 
Q 1456 2553 1204 2497 
Q 953 2441 691 2322 
L 691 4666 
z
" transform="scale(0.015625)"/>
       </defs>
       <use xlink:href="#DejaVuSans-30"/>
       <use xlink:href="#DejaVuSans-2e" x="63.623047"/>
       <use xlink:href="#DejaVuSans-30" x="95.410156"/>
       <use xlink:href="#DejaVuSans-35" x="159.033203"/>
      </g>
     </g>
    </g>
    <g id="ytick_7">
     <g id="line2d_63">
      <path d="M 36.465625 98.890863 
L 594.465625 98.890863 
" clip-path="url(#p0a90ae6504)" style="fill: none; stroke: #b0b0b0; stroke-opacity: 0.9; stroke-width: 0.8; stroke-linecap: square"/>
     </g>
     <g id="line2d_64">
      <g>
       <use xlink:href="#me263ab4a61" x="36.465625" y="98.890863" style="stroke: #000000; stroke-width: 0.8"/>
      </g>
     </g>
     <g id="text_15">
      <!-- 0.06 -->
      <g transform="translate(7.2 102.690082) scale(0.1 -0.1)">
       <use xlink:href="#DejaVuSans-30"/>
       <use xlink:href="#DejaVuSans-2e" x="63.623047"/>
       <use xlink:href="#DejaVuSans-30" x="95.410156"/>
       <use xlink:href="#DejaVuSans-36" x="159.033203"/>
      </g>
     </g>
    </g>
    <g id="ytick_8">
     <g id="line2d_65">
      <path d="M 36.465625 65.452986 
L 594.465625 65.452986 
" clip-path="url(#p0a90ae6504)" style="fill: none; stroke: #b0b0b0; stroke-opacity: 0.9; stroke-width: 0.8; stroke-linecap: square"/>
     </g>
     <g id="line2d_66">
      <g>
       <use xlink:href="#me263ab4a61" x="36.465625" y="65.452986" style="stroke: #000000; stroke-width: 0.8"/>
      </g>
     </g>
     <g id="text_16">
      <!-- 0.07 -->
      <g transform="translate(7.2 69.252205) scale(0.1 -0.1)">
       <defs>
        <path id="DejaVuSans-37" d="M 525 4666 
L 3525 4666 
L 3525 4397 
L 1831 0 
L 1172 0 
L 2766 4134 
L 525 4134 
L 525 4666 
z
" transform="scale(0.015625)"/>
       </defs>
       <use xlink:href="#DejaVuSans-30"/>
       <use xlink:href="#DejaVuSans-2e" x="63.623047"/>
       <use xlink:href="#DejaVuSans-30" x="95.410156"/>
       <use xlink:href="#DejaVuSans-37" x="159.033203"/>
      </g>
     </g>
    </g>
    <g id="ytick_9">
     <g id="line2d_67">
      <path d="M 36.465625 32.015109 
L 594.465625 32.015109 
" clip-path="url(#p0a90ae6504)" style="fill: none; stroke: #b0b0b0; stroke-opacity: 0.9; stroke-width: 0.8; stroke-linecap: square"/>
     </g>
     <g id="line2d_68">
      <g>
       <use xlink:href="#me263ab4a61" x="36.465625" y="32.015109" style="stroke: #000000; stroke-width: 0.8"/>
      </g>
     </g>
     <g id="text_17">
      <!-- 0.08 -->
      <g transform="translate(7.2 35.814328) scale(0.1 -0.1)">
       <use xlink:href="#DejaVuSans-30"/>
       <use xlink:href="#DejaVuSans-2e" x="63.623047"/>
       <use xlink:href="#DejaVuSans-30" x="95.410156"/>
       <use xlink:href="#DejaVuSans-38" x="159.033203"/>
      </g>
     </g>
    </g>
   </g>
   <g id="line2d_69">
    <path d="M 36.465625 108.922226 
L 47.625625 165.766617 
L 58.785625 266.080248 
L 69.945625 266.080248 
L 81.105625 289.486762 
L 92.265625 289.486762 
M 181.545625 266.080248 
L 192.705625 232.642371 
L 203.865625 209.235857 
L 215.025625 222.611008 
L 226.185625 222.611008 
L 237.345625 199.204494 
L 248.505625 209.235857 
L 259.665625 155.735254 
L 270.825625 108.922226 
L 281.985625 132.32874 
L 293.145625 98.890863 
L 304.305625 65.452986 
L 315.465625 88.8595 
L 326.625625 122.297377 
L 337.785625 122.297377 
L 348.945625 165.766617 
L 360.105625 222.611008 
L 371.265625 209.235857 
L 382.425625 199.204494 
L 393.585625 189.173131 
L 404.745625 209.235857 
L 415.905625 222.611008 
L 427.065625 199.204494 
L 438.225625 199.204494 
L 449.385625 209.235857 
L 460.545625 232.642371 
L 471.705625 256.048885 
L 482.865625 232.642371 
L 494.025625 209.235857 
L 505.185625 189.173131 
L 516.345625 122.297377 
L 527.505625 155.735254 
L 538.665625 199.204494 
L 549.825625 209.235857 
L 560.985625 232.642371 
L 572.145625 232.642371 
" clip-path="url(#p0a90ae6504)" style="fill: none; stroke: #808080; stroke-width: 3; stroke-linecap: square"/>
   </g>
   <g id="line2d_70">
    <path d="M 36.465625 296.174337 
M 136.905625 296.174337 
L 148.065625 292.83055 
L 159.225625 286.142974 
L 170.385625 282.799187 
L 181.545625 269.424036 
L 192.705625 279.455399 
L 203.865625 282.799187 
L 215.025625 289.486762 
L 226.185625 296.174337 
L 237.345625 296.174337 
L 248.505625 296.174337 
L 259.665625 259.392673 
L 270.825625 262.73646 
L 281.985625 282.799187 
L 293.145625 246.017522 
L 304.305625 205.89207 
L 315.465625 232.642371 
L 326.625625 246.017522 
L 337.785625 252.705097 
L 348.945625 262.73646 
M 371.265625 286.142974 
L 382.425625 279.455399 
L 393.585625 286.142974 
L 404.745625 272.767823 
L 415.905625 279.455399 
L 427.065625 256.048885 
L 438.225625 276.111611 
L 449.385625 272.767823 
L 460.545625 252.705097 
L 471.705625 282.799187 
L 482.865625 259.392673 
L 494.025625 239.329946 
L 505.185625 225.954796 
L 516.345625 175.79798 
L 527.505625 195.860706 
L 538.665625 225.954796 
L 549.825625 232.642371 
L 560.985625 242.673734 
L 572.145625 246.017522 
" clip-path="url(#p0a90ae6504)" style="fill: none; stroke: #a52a2a; stroke-width: 3; stroke-linecap: square"/>
   </g>
   <g id="line2d_71">
    <path d="M 36.465625 139.016316 
L 47.625625 175.79798 
L 58.785625 162.422829 
L 69.945625 142.360103 
L 81.105625 182.485556 
L 92.265625 185.829343 
L 103.425625 192.516919 
L 114.585625 202.548282 
L 125.745625 246.017522 
L 136.905625 246.017522 
L 148.065625 239.329946 
L 159.225625 232.642371 
L 170.385625 215.923433 
L 181.545625 192.516919 
L 192.705625 209.235857 
L 203.865625 209.235857 
L 215.025625 215.923433 
L 226.185625 252.705097 
L 237.345625 252.705097 
L 248.505625 242.673734 
L 259.665625 162.422829 
L 270.825625 125.641165 
L 281.985625 92.203288 
L 293.145625 48.734048 
L 304.305625 35.358897 
L 315.465625 55.421623 
L 326.625625 68.796774 
L 337.785625 102.234651 
L 348.945625 112.266014 
L 360.105625 185.829343 
L 371.265625 145.703891 
L 382.425625 139.016316 
L 393.585625 135.672528 
L 404.745625 152.391466 
L 415.905625 165.766617 
L 427.065625 139.016316 
L 438.225625 142.360103 
L 449.385625 152.391466 
L 460.545625 128.984953 
L 471.705625 172.454193 
L 482.865625 118.953589 
L 494.025625 122.297377 
L 505.185625 92.203288 
L 516.345625 108.922226 
L 527.505625 185.829343 
L 538.665625 212.579645 
L 549.825625 215.923433 
L 560.985625 225.954796 
L 572.145625 229.298583 
" clip-path="url(#p0a90ae6504)" style="fill: none; stroke: #ff8c00; stroke-width: 3; stroke-linecap: square"/>
   </g>
   <g id="line2d_72">
    <path d="M 36.465625 128.984953 
L 47.625625 159.079042 
L 58.785625 128.984953 
L 69.945625 159.079042 
L 81.105625 139.016316 
L 92.265625 159.079042 
L 103.425625 149.047679 
L 114.585625 159.079042 
L 125.745625 169.110405 
L 136.905625 179.141768 
L 148.065625 169.110405 
L 159.225625 169.110405 
L 170.385625 139.016316 
L 181.545625 118.953589 
L 192.705625 118.953589 
L 203.865625 118.953589 
L 215.025625 88.8595 
L 226.185625 98.890863 
L 237.345625 108.922226 
L 248.505625 88.8595 
L 259.665625 88.8595 
L 270.825625 139.016316 
L 281.985625 139.016316 
L 293.145625 128.984953 
L 304.305625 108.922226 
L 315.465625 108.922226 
L 326.625625 108.922226 
L 337.785625 118.953589 
L 348.945625 128.984953 
L 360.105625 128.984953 
L 371.265625 149.047679 
L 382.425625 159.079042 
L 393.585625 149.047679 
L 404.745625 118.953589 
L 415.905625 128.984953 
L 427.065625 118.953589 
L 438.225625 149.047679 
L 449.385625 118.953589 
L 460.545625 78.828137 
L 471.705625 98.890863 
L 482.865625 108.922226 
L 494.025625 78.828137 
L 505.185625 98.890863 
L 516.345625 118.953589 
L 527.505625 179.141768 
L 538.665625 219.26722 
L 549.825625 169.110405 
L 560.985625 118.953589 
L 572.145625 128.984953 
" clip-path="url(#p0a90ae6504)" style="fill: none; stroke: #228b22; stroke-width: 3; stroke-linecap: square"/>
   </g>
   <g id="line2d_73">
    <path d="M 36.465625 229.298583 
L 47.625625 229.298583 
L 58.785625 219.26722 
L 69.945625 219.26722 
L 81.105625 239.329946 
L 92.265625 239.329946 
L 103.425625 229.298583 
L 114.585625 239.329946 
L 125.745625 239.329946 
L 136.905625 239.329946 
L 148.065625 229.298583 
L 159.225625 229.298583 
L 170.385625 229.298583 
L 181.545625 209.235857 
L 192.705625 219.26722 
L 203.865625 219.26722 
L 215.025625 219.26722 
L 226.185625 229.298583 
L 237.345625 229.298583 
L 248.505625 229.298583 
L 259.665625 229.298583 
L 270.825625 209.235857 
L 281.985625 219.26722 
L 293.145625 229.298583 
L 304.305625 209.235857 
L 315.465625 189.173131 
L 326.625625 209.235857 
L 337.785625 199.204494 
L 348.945625 189.173131 
L 360.105625 199.204494 
L 371.265625 209.235857 
L 382.425625 199.204494 
L 393.585625 189.173131 
L 404.745625 179.141768 
L 415.905625 169.110405 
L 427.065625 169.110405 
L 438.225625 189.173131 
L 449.385625 209.235857 
L 460.545625 209.235857 
L 471.705625 219.26722 
L 482.865625 209.235857 
L 494.025625 209.235857 
L 505.185625 199.204494 
L 516.345625 179.141768 
L 527.505625 189.173131 
L 538.665625 209.235857 
L 549.825625 209.235857 
L 560.985625 209.235857 
L 572.145625 219.26722 
" clip-path="url(#p0a90ae6504)" style="fill: none; stroke: #1e90ff; stroke-width: 3; stroke-linecap: square"/>
   </g>
   <g id="patch_3">
    <path d="M 36.465625 299.518125 
L 36.465625 22.318125 
" style="fill: none; stroke: #000000; stroke-width: 0.8; stroke-linejoin: miter; stroke-linecap: square"/>
   </g>
   <g id="patch_4">
    <path d="M 594.465625 299.518125 
L 594.465625 22.318125 
" style="fill: none; stroke: #000000; stroke-width: 0.8; stroke-linejoin: miter; stroke-linecap: square"/>
   </g>
   <g id="patch_5">
    <path d="M 36.465625 299.518125 
L 594.465625 299.518125 
" style="fill: none; stroke: #000000; stroke-width: 0.8; stroke-linejoin: miter; stroke-linecap: square"/>
   </g>
   <g id="patch_6">
    <path d="M 36.465625 22.318125 
L 594.465625 22.318125 
" style="fill: none; stroke: #000000; stroke-width: 0.8; stroke-linejoin: miter; stroke-linecap: square"/>
   </g>
   <g id="text_18">
    <!-- MEM_Ostankino -->
    <g transform="translate(499.585 16.318125) scale(0.12 -0.12)">
     <defs>
      <path id="DejaVuSans-4d" d="M 628 4666 
L 1569 4666 
L 2759 1491 
L 3956 4666 
L 4897 4666 
L 4897 0 
L 4281 0 
L 4281 4097 
L 3078 897 
L 2444 897 
L 1241 4097 
L 1241 0 
L 628 0 
L 628 4666 
z
" transform="scale(0.015625)"/>
      <path id="DejaVuSans-45" d="M 628 4666 
L 3578 4666 
L 3578 4134 
L 1259 4134 
L 1259 2753 
L 3481 2753 
L 3481 2222 
L 1259 2222 
L 1259 531 
L 3634 531 
L 3634 0 
L 628 0 
L 628 4666 
z
" transform="scale(0.015625)"/>
      <path id="DejaVuSans-5f" d="M 3263 -1063 
L 3263 -1509 
L -63 -1509 
L -63 -1063 
L 3263 -1063 
z
" transform="scale(0.015625)"/>
      <path id="DejaVuSans-4f" d="M 2522 4238 
Q 1834 4238 1429 3725 
Q 1025 3213 1025 2328 
Q 1025 1447 1429 934 
Q 1834 422 2522 422 
Q 3209 422 3611 934 
Q 4013 1447 4013 2328 
Q 4013 3213 3611 3725 
Q 3209 4238 2522 4238 
z
M 2522 4750 
Q 3503 4750 4090 4092 
Q 4678 3434 4678 2328 
Q 4678 1225 4090 567 
Q 3503 -91 2522 -91 
Q 1538 -91 948 565 
Q 359 1222 359 2328 
Q 359 3434 948 4092 
Q 1538 4750 2522 4750 
z
" transform="scale(0.015625)"/>
      <path id="DejaVuSans-73" d="M 2834 3397 
L 2834 2853 
Q 2591 2978 2328 3040 
Q 2066 3103 1784 3103 
Q 1356 3103 1142 2972 
Q 928 2841 928 2578 
Q 928 2378 1081 2264 
Q 1234 2150 1697 2047 
L 1894 2003 
Q 2506 1872 2764 1633 
Q 3022 1394 3022 966 
Q 3022 478 2636 193 
Q 2250 -91 1575 -91 
Q 1294 -91 989 -36 
Q 684 19 347 128 
L 347 722 
Q 666 556 975 473 
Q 1284 391 1588 391 
Q 1994 391 2212 530 
Q 2431 669 2431 922 
Q 2431 1156 2273 1281 
Q 2116 1406 1581 1522 
L 1381 1569 
Q 847 1681 609 1914 
Q 372 2147 372 2553 
Q 372 3047 722 3315 
Q 1072 3584 1716 3584 
Q 2034 3584 2315 3537 
Q 2597 3491 2834 3397 
z
" transform="scale(0.015625)"/>
      <path id="DejaVuSans-74" d="M 1172 4494 
L 1172 3500 
L 2356 3500 
L 2356 3053 
L 1172 3053 
L 1172 1153 
Q 1172 725 1289 603 
Q 1406 481 1766 481 
L 2356 481 
L 2356 0 
L 1766 0 
Q 1100 0 847 248 
Q 594 497 594 1153 
L 594 3053 
L 172 3053 
L 172 3500 
L 594 3500 
L 594 4494 
L 1172 4494 
z
" transform="scale(0.015625)"/>
      <path id="DejaVuSans-61" d="M 2194 1759 
Q 1497 1759 1228 1600 
Q 959 1441 959 1056 
Q 959 750 1161 570 
Q 1363 391 1709 391 
Q 2188 391 2477 730 
Q 2766 1069 2766 1631 
L 2766 1759 
L 2194 1759 
z
M 3341 1997 
L 3341 0 
L 2766 0 
L 2766 531 
Q 2569 213 2275 61 
Q 1981 -91 1556 -91 
Q 1019 -91 701 211 
Q 384 513 384 1019 
Q 384 1609 779 1909 
Q 1175 2209 1959 2209 
L 2766 2209 
L 2766 2266 
Q 2766 2663 2505 2880 
Q 2244 3097 1772 3097 
Q 1472 3097 1187 3025 
Q 903 2953 641 2809 
L 641 3341 
Q 956 3463 1253 3523 
Q 1550 3584 1831 3584 
Q 2591 3584 2966 3190 
Q 3341 2797 3341 1997 
z
" transform="scale(0.015625)"/>
      <path id="DejaVuSans-6e" d="M 3513 2113 
L 3513 0 
L 2938 0 
L 2938 2094 
Q 2938 2591 2744 2837 
Q 2550 3084 2163 3084 
Q 1697 3084 1428 2787 
Q 1159 2491 1159 1978 
L 1159 0 
L 581 0 
L 581 3500 
L 1159 3500 
L 1159 2956 
Q 1366 3272 1645 3428 
Q 1925 3584 2291 3584 
Q 2894 3584 3203 3211 
Q 3513 2838 3513 2113 
z
" transform="scale(0.015625)"/>
      <path id="DejaVuSans-6b" d="M 581 4863 
L 1159 4863 
L 1159 1991 
L 2875 3500 
L 3609 3500 
L 1753 1863 
L 3688 0 
L 2938 0 
L 1159 1709 
L 1159 0 
L 581 0 
L 581 4863 
z
" transform="scale(0.015625)"/>
      <path id="DejaVuSans-69" d="M 603 3500 
L 1178 3500 
L 1178 0 
L 603 0 
L 603 3500 
z
M 603 4863 
L 1178 4863 
L 1178 4134 
L 603 4134 
L 603 4863 
z
" transform="scale(0.015625)"/>
      <path id="DejaVuSans-6f" d="M 1959 3097 
Q 1497 3097 1228 2736 
Q 959 2375 959 1747 
Q 959 1119 1226 758 
Q 1494 397 1959 397 
Q 2419 397 2687 759 
Q 2956 1122 2956 1747 
Q 2956 2369 2687 2733 
Q 2419 3097 1959 3097 
z
M 1959 3584 
Q 2709 3584 3137 3096 
Q 3566 2609 3566 1747 
Q 3566 888 3137 398 
Q 2709 -91 1959 -91 
Q 1206 -91 779 398 
Q 353 888 353 1747 
Q 353 2609 779 3096 
Q 1206 3584 1959 3584 
z
" transform="scale(0.015625)"/>
     </defs>
     <use xlink:href="#DejaVuSans-4d"/>
     <use xlink:href="#DejaVuSans-45" x="86.279297"/>
     <use xlink:href="#DejaVuSans-4d" x="149.462891"/>
     <use xlink:href="#DejaVuSans-5f" x="235.742188"/>
     <use xlink:href="#DejaVuSans-4f" x="285.742188"/>
     <use xlink:href="#DejaVuSans-73" x="364.453125"/>
     <use xlink:href="#DejaVuSans-74" x="416.552734"/>
     <use xlink:href="#DejaVuSans-61" x="455.761719"/>
     <use xlink:href="#DejaVuSans-6e" x="517.041016"/>
     <use xlink:href="#DejaVuSans-6b" x="580.419922"/>
     <use xlink:href="#DejaVuSans-69" x="638.330078"/>
     <use xlink:href="#DejaVuSans-6e" x="666.113281"/>
     <use xlink:href="#DejaVuSans-6f" x="729.492188"/>
    </g>
   </g>
   <g id="legend_1">
    <g id="patch_7">
     <path d="M 43.465625 103.70875 
L 166.671875 103.70875 
Q 168.671875 103.70875 168.671875 101.70875 
L 168.671875 29.318125 
Q 168.671875 27.318125 166.671875 27.318125 
L 43.465625 27.318125 
Q 41.465625 27.318125 41.465625 29.318125 
L 41.465625 101.70875 
Q 41.465625 103.70875 43.465625 103.70875 
z
" style="fill: #ffffff; opacity: 0.8; stroke: #cccccc; stroke-linejoin: miter"/>
    </g>
    <g id="line2d_74">
     <path d="M 45.465625 35.416563 
L 55.465625 35.416563 
L 65.465625 35.416563 
" style="fill: none; stroke: #808080; stroke-width: 3; stroke-linecap: square"/>
    </g>
    <g id="text_19">
     <!-- CO (mg/m3) / 10 -->
     <g transform="translate(73.465625 38.916563) scale(0.1 -0.1)">
      <defs>
       <path id="DejaVuSans-43" d="M 4122 4306 
L 4122 3641 
Q 3803 3938 3442 4084 
Q 3081 4231 2675 4231 
Q 1875 4231 1450 3742 
Q 1025 3253 1025 2328 
Q 1025 1406 1450 917 
Q 1875 428 2675 428 
Q 3081 428 3442 575 
Q 3803 722 4122 1019 
L 4122 359 
Q 3791 134 3420 21 
Q 3050 -91 2638 -91 
Q 1578 -91 968 557 
Q 359 1206 359 2328 
Q 359 3453 968 4101 
Q 1578 4750 2638 4750 
Q 3056 4750 3426 4639 
Q 3797 4528 4122 4306 
z
" transform="scale(0.015625)"/>
       <path id="DejaVuSans-28" d="M 1984 4856 
Q 1566 4138 1362 3434 
Q 1159 2731 1159 2009 
Q 1159 1288 1364 580 
Q 1569 -128 1984 -844 
L 1484 -844 
Q 1016 -109 783 600 
Q 550 1309 550 2009 
Q 550 2706 781 3412 
Q 1013 4119 1484 4856 
L 1984 4856 
z
" transform="scale(0.015625)"/>
       <path id="DejaVuSans-6d" d="M 3328 2828 
Q 3544 3216 3844 3400 
Q 4144 3584 4550 3584 
Q 5097 3584 5394 3201 
Q 5691 2819 5691 2113 
L 5691 0 
L 5113 0 
L 5113 2094 
Q 5113 2597 4934 2840 
Q 4756 3084 4391 3084 
Q 3944 3084 3684 2787 
Q 3425 2491 3425 1978 
L 3425 0 
L 2847 0 
L 2847 2094 
Q 2847 2600 2669 2842 
Q 2491 3084 2119 3084 
Q 1678 3084 1418 2786 
Q 1159 2488 1159 1978 
L 1159 0 
L 581 0 
L 581 3500 
L 1159 3500 
L 1159 2956 
Q 1356 3278 1631 3431 
Q 1906 3584 2284 3584 
Q 2666 3584 2933 3390 
Q 3200 3197 3328 2828 
z
" transform="scale(0.015625)"/>
       <path id="DejaVuSans-67" d="M 2906 1791 
Q 2906 2416 2648 2759 
Q 2391 3103 1925 3103 
Q 1463 3103 1205 2759 
Q 947 2416 947 1791 
Q 947 1169 1205 825 
Q 1463 481 1925 481 
Q 2391 481 2648 825 
Q 2906 1169 2906 1791 
z
M 3481 434 
Q 3481 -459 3084 -895 
Q 2688 -1331 1869 -1331 
Q 1566 -1331 1297 -1286 
Q 1028 -1241 775 -1147 
L 775 -588 
Q 1028 -725 1275 -790 
Q 1522 -856 1778 -856 
Q 2344 -856 2625 -561 
Q 2906 -266 2906 331 
L 2906 616 
Q 2728 306 2450 153 
Q 2172 0 1784 0 
Q 1141 0 747 490 
Q 353 981 353 1791 
Q 353 2603 747 3093 
Q 1141 3584 1784 3584 
Q 2172 3584 2450 3431 
Q 2728 3278 2906 2969 
L 2906 3500 
L 3481 3500 
L 3481 434 
z
" transform="scale(0.015625)"/>
       <path id="DejaVuSans-29" d="M 513 4856 
L 1013 4856 
Q 1481 4119 1714 3412 
Q 1947 2706 1947 2009 
Q 1947 1309 1714 600 
Q 1481 -109 1013 -844 
L 513 -844 
Q 928 -128 1133 580 
Q 1338 1288 1338 2009 
Q 1338 2731 1133 3434 
Q 928 4138 513 4856 
z
" transform="scale(0.015625)"/>
      </defs>
      <use xlink:href="#DejaVuSans-43"/>
      <use xlink:href="#DejaVuSans-4f" x="69.824219"/>
      <use xlink:href="#DejaVuSans-20" x="148.535156"/>
      <use xlink:href="#DejaVuSans-28" x="180.322266"/>
      <use xlink:href="#DejaVuSans-6d" x="219.335938"/>
      <use xlink:href="#DejaVuSans-67" x="316.748047"/>
      <use xlink:href="#DejaVuSans-2f" x="380.224609"/>
      <use xlink:href="#DejaVuSans-6d" x="413.916016"/>
      <use xlink:href="#DejaVuSans-33" x="511.328125"/>
      <use xlink:href="#DejaVuSans-29" x="574.951172"/>
      <use xlink:href="#DejaVuSans-20" x="613.964844"/>
      <use xlink:href="#DejaVuSans-2f" x="645.751953"/>
      <use xlink:href="#DejaVuSans-20" x="679.443359"/>
      <use xlink:href="#DejaVuSans-31" x="711.230469"/>
      <use xlink:href="#DejaVuSans-30" x="774.853516"/>
     </g>
    </g>
    <g id="line2d_75">
     <path d="M 45.465625 50.094688 
L 55.465625 50.094688 
L 65.465625 50.094688 
" style="fill: none; stroke: #a52a2a; stroke-width: 3; stroke-linecap: square"/>
    </g>
    <g id="text_20">
     <!-- NO (mg/m3) -->
     <g transform="translate(73.465625 53.594688) scale(0.1 -0.1)">
      <defs>
       <path id="DejaVuSans-4e" d="M 628 4666 
L 1478 4666 
L 3547 763 
L 3547 4666 
L 4159 4666 
L 4159 0 
L 3309 0 
L 1241 3903 
L 1241 0 
L 628 0 
L 628 4666 
z
" transform="scale(0.015625)"/>
      </defs>
      <use xlink:href="#DejaVuSans-4e"/>
      <use xlink:href="#DejaVuSans-4f" x="74.804688"/>
      <use xlink:href="#DejaVuSans-20" x="153.515625"/>
      <use xlink:href="#DejaVuSans-28" x="185.302734"/>
      <use xlink:href="#DejaVuSans-6d" x="224.316406"/>
      <use xlink:href="#DejaVuSans-67" x="321.728516"/>
      <use xlink:href="#DejaVuSans-2f" x="385.205078"/>
      <use xlink:href="#DejaVuSans-6d" x="418.896484"/>
      <use xlink:href="#DejaVuSans-33" x="516.308594"/>
      <use xlink:href="#DejaVuSans-29" x="579.931641"/>
     </g>
    </g>
    <g id="line2d_76">
     <path d="M 45.465625 64.772813 
L 55.465625 64.772813 
L 65.465625 64.772813 
" style="fill: none; stroke: #ff8c00; stroke-width: 3; stroke-linecap: square"/>
    </g>
    <g id="text_21">
     <!-- NO2 (mg/m3) -->
     <g transform="translate(73.465625 68.272813) scale(0.1 -0.1)">
      <use xlink:href="#DejaVuSans-4e"/>
      <use xlink:href="#DejaVuSans-4f" x="74.804688"/>
      <use xlink:href="#DejaVuSans-32" x="153.515625"/>
      <use xlink:href="#DejaVuSans-20" x="217.138672"/>
      <use xlink:href="#DejaVuSans-28" x="248.925781"/>
      <use xlink:href="#DejaVuSans-6d" x="287.939453"/>
      <use xlink:href="#DejaVuSans-67" x="385.351562"/>
      <use xlink:href="#DejaVuSans-2f" x="448.828125"/>
      <use xlink:href="#DejaVuSans-6d" x="482.519531"/>
      <use xlink:href="#DejaVuSans-33" x="579.931641"/>
      <use xlink:href="#DejaVuSans-29" x="643.554688"/>
     </g>
    </g>
    <g id="line2d_77">
     <path d="M 45.465625 79.450938 
L 55.465625 79.450938 
L 65.465625 79.450938 
" style="fill: none; stroke: #228b22; stroke-width: 3; stroke-linecap: square"/>
    </g>
    <g id="text_22">
     <!-- SO2 (mg/m3) * 30 -->
     <g transform="translate(73.465625 82.950938) scale(0.1 -0.1)">
      <defs>
       <path id="DejaVuSans-53" d="M 3425 4513 
L 3425 3897 
Q 3066 4069 2747 4153 
Q 2428 4238 2131 4238 
Q 1616 4238 1336 4038 
Q 1056 3838 1056 3469 
Q 1056 3159 1242 3001 
Q 1428 2844 1947 2747 
L 2328 2669 
Q 3034 2534 3370 2195 
Q 3706 1856 3706 1288 
Q 3706 609 3251 259 
Q 2797 -91 1919 -91 
Q 1588 -91 1214 -16 
Q 841 59 441 206 
L 441 856 
Q 825 641 1194 531 
Q 1563 422 1919 422 
Q 2459 422 2753 634 
Q 3047 847 3047 1241 
Q 3047 1584 2836 1778 
Q 2625 1972 2144 2069 
L 1759 2144 
Q 1053 2284 737 2584 
Q 422 2884 422 3419 
Q 422 4038 858 4394 
Q 1294 4750 2059 4750 
Q 2388 4750 2728 4690 
Q 3069 4631 3425 4513 
z
" transform="scale(0.015625)"/>
       <path id="DejaVuSans-2a" d="M 3009 3897 
L 1888 3291 
L 3009 2681 
L 2828 2375 
L 1778 3009 
L 1778 1831 
L 1422 1831 
L 1422 3009 
L 372 2375 
L 191 2681 
L 1313 3291 
L 191 3897 
L 372 4206 
L 1422 3572 
L 1422 4750 
L 1778 4750 
L 1778 3572 
L 2828 4206 
L 3009 3897 
z
" transform="scale(0.015625)"/>
      </defs>
      <use xlink:href="#DejaVuSans-53"/>
      <use xlink:href="#DejaVuSans-4f" x="63.476562"/>
      <use xlink:href="#DejaVuSans-32" x="142.1875"/>
      <use xlink:href="#DejaVuSans-20" x="205.810547"/>
      <use xlink:href="#DejaVuSans-28" x="237.597656"/>
      <use xlink:href="#DejaVuSans-6d" x="276.611328"/>
      <use xlink:href="#DejaVuSans-67" x="374.023438"/>
      <use xlink:href="#DejaVuSans-2f" x="437.5"/>
      <use xlink:href="#DejaVuSans-6d" x="471.191406"/>
      <use xlink:href="#DejaVuSans-33" x="568.603516"/>
      <use xlink:href="#DejaVuSans-29" x="632.226562"/>
      <use xlink:href="#DejaVuSans-20" x="671.240234"/>
      <use xlink:href="#DejaVuSans-2a" x="703.027344"/>
      <use xlink:href="#DejaVuSans-20" x="753.027344"/>
      <use xlink:href="#DejaVuSans-33" x="784.814453"/>
      <use xlink:href="#DejaVuSans-30" x="848.4375"/>
     </g>
    </g>
    <g id="line2d_78">
     <path d="M 45.465625 94.129063 
L 55.465625 94.129063 
L 65.465625 94.129063 
" style="fill: none; stroke: #1e90ff; stroke-width: 3; stroke-linecap: square"/>
    </g>
    <g id="text_23">
     <!-- H2S (mg/m3) * 30 -->
     <g transform="translate(73.465625 97.629063) scale(0.1 -0.1)">
      <defs>
       <path id="DejaVuSans-48" d="M 628 4666 
L 1259 4666 
L 1259 2753 
L 3553 2753 
L 3553 4666 
L 4184 4666 
L 4184 0 
L 3553 0 
L 3553 2222 
L 1259 2222 
L 1259 0 
L 628 0 
L 628 4666 
z
" transform="scale(0.015625)"/>
      </defs>
      <use xlink:href="#DejaVuSans-48"/>
      <use xlink:href="#DejaVuSans-32" x="75.195312"/>
      <use xlink:href="#DejaVuSans-53" x="138.818359"/>
      <use xlink:href="#DejaVuSans-20" x="202.294922"/>
      <use xlink:href="#DejaVuSans-28" x="234.082031"/>
      <use xlink:href="#DejaVuSans-6d" x="273.095703"/>
      <use xlink:href="#DejaVuSans-67" x="370.507812"/>
      <use xlink:href="#DejaVuSans-2f" x="433.984375"/>
      <use xlink:href="#DejaVuSans-6d" x="467.675781"/>
      <use xlink:href="#DejaVuSans-33" x="565.087891"/>
      <use xlink:href="#DejaVuSans-29" x="628.710938"/>
      <use xlink:href="#DejaVuSans-20" x="667.724609"/>
      <use xlink:href="#DejaVuSans-2a" x="699.511719"/>
      <use xlink:href="#DejaVuSans-20" x="749.511719"/>
      <use xlink:href="#DejaVuSans-33" x="781.298828"/>
      <use xlink:href="#DejaVuSans-30" x="844.921875"/>
     </g>
    </g>
   </g>
  </g>
 </g>
 <defs>
  <clipPath id="p0a90ae6504">
   <rect x="36.465625" y="22.318125" width="558" height="277.2"/>
  </clipPath>
 </defs>
</svg>
